<svg xmlns="http://www.w3.org/2000/svg" viewBox="0 0 753.19 751.98"><defs><style>.cls-1{fill:#60cae7;}</style></defs><g id="Layer_2" data-name="Layer 2"><g id="burn"><path class="cls-1" d="M188,335.55s81.32,37.88,73.93,79.37c-9.66,54.17,5.21,84.91,5.21,84.91s6.2-31.77,29.53-48.95c5-3.7,18.64-8.55,18.64-8.55s-6.77,39.51,2.34,87c.66,3.46,10.43,26.41,10.43,26.41s11.58-20.07,30-28.74c4.5-2.13,16.43-2.34,16.43-2.34S359,550.12,369.73,576c4.06,9.78,8.17,16.06,12.43,24.87,13.31,27.48-11.68,65.35-13.2,67.6-29.28,43.23-89.83,47.83-135.2,51.28-40.6,3.08-65.58,5-92.46-10.88-33.5-19.77-59.11-51.12-56.16-88.12,1.55-19.53,1.33-34.2,23.53-71.94,15.54-26.42,8.62-59.29,6-66.48a142.49,142.49,0,0,0-20.2-36.19s29.72-.25,43,12.21c22,20.72,25.2,51.61,25.2,51.61s-7.08-34.78,26.29-66.74C236.53,397.59,188,335.55,188,335.55Z"/><path class="cls-1" d="M735.69,644.76a17.47,17.47,0,0,1-12.48-5.23l-188-191.14a17.51,17.51,0,0,1-5-11.69l-6.89-207.43-37-90.75a20.28,20.28,0,0,0-32.83,19.27l27.84,74.89A17.5,17.5,0,0,1,477,251.37l-25.3,24.42a17.5,17.5,0,0,1-24.44-.13L183.71,35.49c-4.39-.75-12.32-1.16-18.72,3.62-7.15,5.35-10.35,15.21-8.36,24.85l184,189.94a17.5,17.5,0,0,1-24.44,25L92.53,72.66a17.43,17.43,0,0,0-25.7,18.93L277.75,317.4A17.5,17.5,0,0,1,252.91,342L67.2,165.78h0c-7.6,0-23.12,4.55-27.82,8.42-2,5.79.63,23.35,4.31,28.06C62.4,223.54,154.78,319.89,154.78,319.89l-18.91,33.36L53,285.87c-5.79,2.15-12.75,5.67-15.52,9.36-2.4,3.2-3.08,8.53-2,14.69l88.53,96.79-43.87-.48L7,330.64a17.48,17.48,0,0,1-4.22-7.54l0-.09c-5.26-18.62-2.84-35.95,6.82-48.8,8.44-11.23,22.2-18,32.52-21.59-8.08-8.69-16.35-17.78-24.88-27.47l-.26-.3c-12.13-14.43-19.67-53.08-5.7-71.64C19.12,142.71,35.13,137,44,134.45a104.53,104.53,0,0,1,12.46-2.71L38.38,112.41a17.66,17.66,0,0,1-3.67-6C26.58,83.89,34.29,58.64,53.47,45a52.82,52.82,0,0,1,58.84-1.33,18.08,18.08,0,0,1,2.56,2l6.47,6A57.85,57.85,0,0,1,144,11.09c23-17.19,49.1-9.7,54.11-8a17.46,17.46,0,0,1,6.73,4.14L439.69,238.75l4.78-4.61-24.32-65.42a17.15,17.15,0,0,1-.67-2.25,55.29,55.29,0,0,1,94.33-50,17.57,17.57,0,0,1,3.44,5.35L556.87,219a17.6,17.6,0,0,1,1.29,6l6.76,203.73L748.17,615a17.51,17.51,0,0,1-12.48,29.78ZM69.67,166Z"/><path class="cls-1" d="M518.14,752a17.44,17.44,0,0,1-12.43-5.18L414.8,655.12l2.86-42.65,112.9,109.69A17.49,17.49,0,0,1,518.14,752Z"/></g></g></svg>