<svg xmlns="http://www.w3.org/2000/svg" viewBox="0 0 742.74 756.32"><defs><style>.cls-1{fill:#60cae7;}</style></defs><g id="Layer_2" data-name="Layer 2"><g id="nurse"><rect class="cls-1" x="343.02" width="118.1" height="346.01"/><rect class="cls-1" x="229.06" y="118.1" width="342.91" height="113.96"/><path class="cls-1" d="M457.06,525.24a28.57,28.57,0,0,0,9.65-1.68c22.85-8.25,36.41-30.93,32.74-52.19-2.88-16.67-16-30.73-33.61-36.09a28.27,28.27,0,0,0-8.23-1.21h-246a38.46,38.46,0,0,0-19.64,5.4L13.73,547.33A28.46,28.46,0,0,0,4,586.18l92.26,156a28.88,28.88,0,0,0,40.67,9.47c25.28-16.53,61.11-40,66.32-43.69a89.8,89.8,0,0,1,43.52-16l214.38-19.57a134.05,134.05,0,0,0,98.7-54.91,25.47,25.47,0,0,1,1.6-2q87-98.62,174.1-197.24a28.14,28.14,0,0,0,6.85-14.83c2-15.45-4.42-31-17.08-39.74-12.26-8.49-28.49-9.39-42.11-2.6a27.16,27.16,0,0,0-7.13,5.23q-79.5,80-159,160c-1.9,1.9-16.75,15-38.86,22.13-24,7.71-49.2,6.36-53.34,6.36H296.4c-16.19.24-18-8.67-17.94-15s2-14.91,17.94-14.5Z"/></g></g></svg>