<svg xmlns="http://www.w3.org/2000/svg" viewBox="0 0 162.6 169.63"><defs><style>.cls-1{fill:#fff;}</style></defs><g id="Layer_2" data-name="Layer 2"><g id="Layer_5" data-name="Layer 5"><path class="cls-1" d="M87.55,128.71a9,9,0,0,0,9.38-.75l40.42-29.48A9,9,0,0,0,137.4,84L97,54.08a9,9,0,0,0-14.35,7.23V75.15L54.14,54.08a9,9,0,0,0-14.35,7.23v59.38A9,9,0,0,0,54.1,128l28.53-20.81v13.54A9,9,0,0,0,87.55,128.71Z"/><path class="cls-1" d="M157.71,16.17a9,9,0,0,0-9.44.76l-6.68,4.9A84,84,0,0,0,84.82,0a84.82,84.82,0,1,0,71.53,130.41,9,9,0,0,0-15.17-9.69A66.82,66.82,0,1,1,84.82,18a66.14,66.14,0,0,1,41.89,14.78L120,37.69a9,9,0,0,0,2.69,15.86l27.9,8.56a8.81,8.81,0,0,0,2.64.4,9,9,0,0,0,9-8.89l.34-29.34A9,9,0,0,0,157.71,16.17Z"/></g></g></svg>